#N canvas 1023 81 253 346 10;
#N canvas 806 241 464 428 circle 0;
#X obj 53 150 gemwin;
#X msg 7 121 0 \, destroy;
#X obj 205 174 circle;
#X obj 26 259 line 0 5;
#X obj 53 327 spigot;
#X obj 205 151 translateXYZ -3.87 0 0;
#X obj 26 72 t b b;
#X obj 7 50 sel 0 1;
#X obj 7 2 inlet;
#X obj 7 24 t f f;
#X obj 26 395 outlet;
#X obj 349 128 pi;
#X obj 349 151 * 2;
#X obj 349 173 s 2*pi;
#X obj 205 126 gemhead 50;
#X text 80 258 This is driving the movement of all shapes;
#X msg 53 98 reset \, dimen 640 500 \, color 0.4 0.4 0.4 \, FSAA 4
\, create \, 1;
#X obj 60 214 inlet;
#X obj 26 214 8000;
#X obj 26 281 t f f;
#X obj 53 303 sel 2;
#X obj 53 349 t b b;
#X msg 26 237 2 \$1;
#X text 122 370 when ramp is finished \, jump back to zero and start
again;
#X text 97 213 change ramp time dynamically;
#X msg 80 370 set 0;
#X msg 38 180 bang;
#X connect 1 0 0 0;
#X connect 3 0 19 0;
#X connect 4 0 21 0;
#X connect 5 0 2 0;
#X connect 6 0 18 0;
#X connect 6 1 16 0;
#X connect 7 0 1 0;
#X connect 7 1 6 0;
#X connect 8 0 9 0;
#X connect 9 0 7 0;
#X connect 9 1 4 1;
#X connect 11 0 12 0;
#X connect 12 0 13 0;
#X connect 14 0 5 0;
#X connect 16 0 0 0;
#X connect 17 0 18 0;
#X connect 18 0 22 0;
#X connect 19 0 10 0;
#X connect 19 1 20 0;
#X connect 20 0 4 0;
#X connect 21 0 18 0;
#X connect 21 1 25 0;
#X connect 22 0 3 0;
#X connect 25 0 3 0;
#X connect 26 0 18 0;
#X restore 23 82 pd circle;
#X obj 23 22 tgl 30 0 empty empty start/stop 35 25 0 10 -4034 -1 -1
0 1;
#N canvas 672 48 425 259 stable_radius 0;
#X obj -461 137 translateXYZ -3.87 0 0;
#X obj -461 219 curve 2;
#X msg -422 196 1 0 0;
#X obj -461 116 color 0 0 0;
#X obj -422 173 loadbang;
#X obj -272 95 inlet;
#X obj -272 117 outlet;
#X obj -461 95 gemhead 55;
#X text -235 92 it's just bypassing;
#X connect 0 0 1 0;
#X connect 2 0 1 2;
#X connect 3 0 0 0;
#X connect 4 0 2 0;
#X connect 5 0 6 0;
#X connect 7 0 3 0;
#X restore 23 107 pd stable_radius;
#N canvas 318 300 262 304 rotating_radius 0;
#X obj 45 195 rotateXYZ;
#X obj 45 259 curve 2;
#X obj 96 174 * 360;
#X msg 84 238 1 0 0;
#X obj 45 81 translateXYZ -3.87 0 0;
#X obj 45 58 color 0 0 0;
#X obj 84 217 loadbang;
#X obj 96 110 inlet;
#X obj 96 132 t f f;
#X obj 123 153 outlet;
#X obj 45 36 gemhead 55;
#X connect 0 0 1 0;
#X connect 2 0 0 3;
#X connect 3 0 1 2;
#X connect 4 0 0 0;
#X connect 5 0 4 0;
#X connect 6 0 3 0;
#X connect 7 0 8 0;
#X connect 8 0 2 0;
#X connect 8 1 9 0;
#X connect 10 0 5 0;
#X restore 23 154 pd rotating_radius;
#N canvas 462 22 506 357 circumference_square 0;
#X obj 37 296 square 0.05;
#X obj 124 154 sin;
#X obj 80 115 *;
#X obj 80 137 t f f;
#X obj 80 159 cos;
#X obj 37 274 translateXYZ -2.87 0 0;
#X obj 80 251 - 3.87;
#X obj 37 20 color 0 0 0;
#X obj 95 93 r 2*pi;
#X obj 80 48 inlet;
#X obj 80 70 t f f;
#X obj 80 181 t f f;
#X obj 124 176 t f f;
#X obj 107 207 pack f f f;
#X obj 107 229 outlet;
#X obj 37 -1 gemhead 55;
#X text 175 207 here the cosine \, sine and [line] are packed;
#X connect 1 0 12 0;
#X connect 2 0 3 0;
#X connect 3 0 4 0;
#X connect 3 1 1 0;
#X connect 4 0 11 0;
#X connect 5 0 0 0;
#X connect 6 0 5 1;
#X connect 7 0 5 0;
#X connect 8 0 2 1;
#X connect 9 0 10 0;
#X connect 10 0 2 0;
#X connect 10 1 13 2;
#X connect 11 0 6 0;
#X connect 11 1 13 0;
#X connect 12 0 5 2;
#X connect 12 1 13 1;
#X connect 13 0 14 0;
#X connect 15 0 7 0;
#X restore 23 178 pd circumference_square;
#N canvas 596 202 593 328 sine_sphere 0;
#X obj 56 260 circle 0.05;
#X obj 72 171 * 4;
#X obj 72 192 t f f;
#X obj 56 238 translateXYZ -2.87 0 0;
#X obj 99 214 - 2.87;
#X obj 56 37 color 0 0 0;
#X obj 108 65 inlet;
#X obj 108 87 unpack f f f;
#X obj 142 109 t f f;
#X obj 177 109 t f f;
#X obj 108 140 pack f f f f;
#X obj 108 162 outlet;
#X obj 56 15 gemhead 55;
#X text 187 139 they're unpacked for use here and repacked (including
sphere's x position \, needed for the dynamic line) for the other shapes
;
#X connect 1 0 2 0;
#X connect 2 0 10 1;
#X connect 2 1 4 0;
#X connect 3 0 0 0;
#X connect 4 0 3 1;
#X connect 5 0 3 0;
#X connect 6 0 7 0;
#X connect 7 0 10 0;
#X connect 7 1 8 0;
#X connect 7 2 9 0;
#X connect 8 0 3 2;
#X connect 8 1 10 2;
#X connect 9 0 1 0;
#X connect 9 1 10 3;
#X connect 10 0 11 0;
#X connect 12 0 5 0;
#X restore 23 248 pd sine_sphere;
#N canvas 186 263 686 332 dynamic_line 0;
#X obj 77 256 curve 2;
#X obj 96 186 pack f f 0;
#X obj 96 163 - 1;
#X obj 116 226 pack f f 0;
#X obj 77 66 translateXYZ -2.87 0 0;
#X obj 77 39 color 0 0 0;
#X obj 96 100 inlet;
#X obj 96 122 unpack f f f f;
#X obj 150 164 t f f;
#X obj 177 143 outlet;
#X obj 77 17 gemhead 55;
#X text 220 143 from here downwards we just need the [line] ramp;
#X text 181 224 2nd control point has the same x with the sine sphere
\, and the sine values for y;
#X text 162 181 1st control point's x moves along with the circumference
square \, with an offset \; sine values for y;
#X connect 1 0 0 1;
#X connect 2 0 1 0;
#X connect 3 0 0 2;
#X connect 4 0 0 0;
#X connect 5 0 4 0;
#X connect 6 0 7 0;
#X connect 7 0 2 0;
#X connect 7 1 3 0;
#X connect 7 2 8 0;
#X connect 7 3 9 0;
#X connect 8 0 1 1;
#X connect 8 1 3 1;
#X connect 10 0 5 0;
#X restore 23 273 pd dynamic_line;
#N canvas 484 253 249 444 angle 0;
#X obj 23 -864 square 0.01;
#X obj 23 -1081 repeat;
#X obj 23 -1059 separator;
#X obj 23 -1037 t a b;
#X obj 50 -1017 f;
#X obj 75 -1017 + 1;
#X obj 100 -1017 mod 360;
#X obj 50 -995 / 360;
#X obj 50 -973 *;
#X obj 50 -951 t f f;
#X obj 87 -929 sin;
#X obj 50 -929 cos;
#X obj 23 -886 translateXYZ;
#X obj 70 -1120 * 360;
#X obj 50 -907 * 0.2;
#X obj 87 -907 * 0.2;
#X obj 23 -1248 translateXYZ -3.87 0 0;
#X obj 70 -1141 wrap;
#X obj 70 -1098 t f f;
#X obj 29 -1137 sel 2;
#X msg 29 -1115 1;
#X obj 23 -1226 color 0 0 0;
#X obj 82 -976 r 2*pi;
#X obj 29 -1205 inlet;
#X obj 29 -1184 t f f f;
#X obj 68 -1164 outlet;
#X obj 23 -1268 gemhead 55;
#X connect 1 0 2 0;
#X connect 2 0 3 0;
#X connect 3 0 12 0;
#X connect 3 1 4 0;
#X connect 4 0 5 0;
#X connect 4 0 7 0;
#X connect 5 0 6 0;
#X connect 6 0 4 1;
#X connect 7 0 8 0;
#X connect 8 0 9 0;
#X connect 9 0 11 0;
#X connect 9 1 10 0;
#X connect 10 0 15 0;
#X connect 11 0 14 0;
#X connect 12 0 0 0;
#X connect 13 0 18 0;
#X connect 14 0 12 1;
#X connect 15 0 12 2;
#X connect 16 0 21 0;
#X connect 17 0 13 0;
#X connect 18 0 1 1;
#X connect 18 1 6 1;
#X connect 19 0 20 0;
#X connect 20 0 13 0;
#X connect 21 0 1 0;
#X connect 22 0 8 1;
#X connect 23 0 24 0;
#X connect 24 0 19 0;
#X connect 24 1 17 0;
#X connect 24 2 25 0;
#X connect 26 0 16 0;
#X restore 23 296 pd angle;
#N canvas 431 356 222 372 sine_curve 0;
#X obj 21 172 separator;
#X obj 21 153 repeat 100;
#X obj 21 191 t a b;
#X obj 48 210 f;
#X obj 75 291 sin;
#X obj 72 210 - 1;
#X obj 48 270 * 4;
#X obj 48 229 / 360;
#X obj 97 210 mod 360;
#X obj 78 110 * 360;
#X obj 78 132 t f f;
#X obj 48 249 t f f;
#X obj 21 316 translateXYZ;
#X obj 21 65 translateXYZ -2.87 0 0;
#X obj 75 271 *;
#X obj 21 40 color 1 0 0;
#X obj 90 250 r 2*pi;
#X obj 78 89 inlet;
#X obj 21 18 gemhead 55;
#X obj 21 340 circle 0.01;
#X connect 0 0 2 0;
#X connect 1 0 0 0;
#X connect 2 0 12 0;
#X connect 2 1 3 0;
#X connect 3 0 5 0;
#X connect 3 0 7 0;
#X connect 4 0 12 2;
#X connect 5 0 8 0;
#X connect 6 0 12 1;
#X connect 7 0 11 0;
#X connect 8 0 3 1;
#X connect 9 0 10 0;
#X connect 10 0 1 1;
#X connect 10 1 8 1;
#X connect 11 0 6 0;
#X connect 11 1 14 0;
#X connect 12 0 19 0;
#X connect 13 0 1 0;
#X connect 14 0 4 0;
#X connect 15 0 13 0;
#X connect 16 0 14 1;
#X connect 17 0 9 0;
#X connect 18 0 15 0;
#X restore 23 320 pd sine_curve;
#N canvas 715 347 369 234 y-axis 0;
#X obj 17 44 gemhead 55;
#X obj 17 66 color 0 0 1;
#X obj 17 160 curve 2;
#X obj 17 88 translateXYZ -3.87 -1 0;
#X msg 56 138 0 2 0;
#X obj 56 116 loadbang;
#X obj 189 70 inlet;
#X obj 189 92 outlet;
#X text 227 69 it's just bypassing;
#X connect 0 0 1 0;
#X connect 1 0 3 0;
#X connect 3 0 2 0;
#X connect 4 0 2 2;
#X connect 5 0 4 0;
#X connect 6 0 7 0;
#X restore 23 130 pd y-axis;
#N canvas 456 384 553 254 y-axis_sphere 0;
#X obj 71 174 translateXYZ -3.87 0 0;
#X obj 71 196 circle 0.05;
#X obj 71 10 gemhead 55;
#X obj 71 32 color 0.75 0 0.75;
#X obj 96 54 inlet;
#X obj 96 76 unpack f f f;
#X obj 130 97 t f f;
#X obj 96 120 pack f f f;
#X obj 96 142 outlet;
#X text 179 78 they're unpacked for use and repacked to pass on;
#X connect 0 0 1 0;
#X connect 2 0 3 0;
#X connect 3 0 0 0;
#X connect 4 0 5 0;
#X connect 5 0 7 0;
#X connect 5 1 6 0;
#X connect 5 2 7 2;
#X connect 6 0 7 1;
#X connect 6 1 0 2;
#X connect 7 0 8 0;
#X restore 23 201 pd y-axis_sphere;
#N canvas 760 390 253 274 small_line 0;
#X obj 36 16 gemhead 55;
#X obj 36 38 color 0 0 0;
#X obj 36 217 curve 2;
#X obj 48 59 inlet;
#X obj 48 81 unpack f f f;
#X obj 48 103 t f f;
#X obj 82 103 t f f;
#X msg 75 195 \$1 0 0;
#X obj 36 174 translateXYZ -3.87 0 0;
#X obj 48 126 pack f f f;
#X obj 48 148 outlet;
#X connect 0 0 1 0;
#X connect 1 0 8 0;
#X connect 3 0 4 0;
#X connect 4 0 5 0;
#X connect 4 1 6 0;
#X connect 4 2 9 2;
#X connect 5 0 9 0;
#X connect 5 1 7 0;
#X connect 6 0 9 1;
#X connect 6 1 8 2;
#X connect 7 0 2 2;
#X connect 8 0 2 0;
#X connect 9 0 10 0;
#X restore 23 225 pd small_line;
#X floatatom 74 61 5 0 0 0 - - -;
#X text 109 60 ramp time;
#X connect 0 0 2 0;
#X connect 1 0 0 0;
#X connect 2 0 9 0;
#X connect 3 0 4 0;
#X connect 4 0 10 0;
#X connect 5 0 6 0;
#X connect 6 0 7 0;
#X connect 7 0 8 0;
#X connect 9 0 3 0;
#X connect 10 0 11 0;
#X connect 11 0 5 0;
#X connect 12 0 0 1;
